<?xml version="1.0" encoding="UTF-8" standalone="no"?>
<!-- Created with Inkscape (http://www.inkscape.org/) -->

<svg
   width="210mm"
   height="297mm"
   viewBox="0 0 210 297"
   version="1.1"
   id="svg5"
   inkscape:version="1.1.1 (3bf5ae0d25, 2021-09-20)"
   sodipodi:docname="drawing.svg"
   xmlns:inkscape="http://www.inkscape.org/namespaces/inkscape"
   xmlns:sodipodi="http://sodipodi.sourceforge.net/DTD/sodipodi-0.dtd"
   xmlns="http://www.w3.org/2000/svg"
   xmlns:svg="http://www.w3.org/2000/svg">
  <sodipodi:namedview
     id="namedview7"
     pagecolor="#505050"
     bordercolor="#eeeeee"
     borderopacity="1"
     inkscape:pageshadow="0"
     inkscape:pageopacity="0"
     inkscape:pagecheckerboard="0"
     inkscape:document-units="mm"
     showgrid="false"
     inkscape:zoom="1.0998546"
     inkscape:cx="256.85213"
     inkscape:cy="757.82744"
     inkscape:window-width="2048"
     inkscape:window-height="1447"
     inkscape:window-x="0"
     inkscape:window-y="61"
     inkscape:window-maximized="1"
     inkscape:current-layer="layer1" />
  <defs
     id="defs2" />
  <g
     inkscape:label="Layer 1"
     inkscape:groupmode="layer"
     id="layer1">
    <g
       id="g189778"
       transform="translate(-8.4533955,27.543191)">
      <path
         style="fill:#fefefe;stroke-width:0.264583"
         d="m 20.556677,141.0448 c -0.475539,-0.41244 -1.146955,-1.77778 -2.296337,-4.66966 -0.276001,-0.69442 -0.329865,-0.96089 -0.668523,-3.30729 -0.33962,-2.35306 -0.333698,-3.80643 0.02,-4.90704 l 0.259018,-0.806 0.912266,-0.0614 0.912266,-0.0614 0.389274,0.60286 c 0.2141,0.33157 0.455839,1.43629 0.537198,2.45494 0.182196,2.28116 1.22359,6.77111 1.526993,6.5836 0.21535,-0.1331 1.005999,-1.81312 1.10608,-2.35027 0.02711,-0.14552 0.126676,-0.38818 0.221252,-0.53924 0.09458,-0.15106 0.437206,-1.04403 0.7614,-1.98437 0.698582,-2.02629 1.531949,-3.42133 2.497557,-4.18088 l 0.702642,-0.5527 0.640869,0.41992 c 0.352479,0.23095 0.687268,0.67319 0.743976,0.98276 0.293666,1.60309 1.005305,4.84618 1.139524,5.19305 0.08446,0.21828 0.196253,0.635 0.248422,0.92604 0.172199,0.96066 0.661946,1.94409 1.0405,2.08936 l 0.372649,0.14299 v -0.38857 c 0,-0.21371 -0.01016,-0.46455 -0.0226,-0.55742 -0.01243,-0.0929 0.09887,-0.24393 0.247338,-0.33569 0.148463,-0.0918 0.310475,-0.46225 0.360026,-0.82333 0.04955,-0.36108 0.183399,-0.80533 0.297445,-0.98723 0.114043,-0.1819 0.126217,-0.33073 0.02705,-0.33073 -0.09917,0 -0.06041,-0.14883 0.08612,-0.33073 0.146537,-0.1819 0.354848,-0.74354 0.462915,-1.24809 0.108069,-0.50454 0.30036,-1.09986 0.427312,-1.32291 0.343218,-0.60303 0.850993,-1.96689 0.80907,-2.17313 -0.02013,-0.099 0.331388,-0.48971 0.78115,-0.86817 l 0.817756,-0.68809 0.565185,0.16417 c 0.310853,0.0903 1.060899,0.51073 1.666774,0.93431 l 1.101585,0.77014 1.676538,-0.004 c 2.381729,-0.005 2.745965,-0.16137 3.801501,-1.6306 l 0.940861,-1.30961 1.593419,-0.75357 1.593416,-0.75356 0.832819,0.23885 c 1.151623,0.33028 1.695783,0.96006 2.07863,2.40571 l 0.327411,1.23632 -0.512426,1.14493 c -0.639551,1.42897 -1.821392,2.75684 -3.988316,4.48111 -0.925918,0.73678 -1.683486,1.4642 -1.683486,1.61651 0,0.49168 1.119447,1.26511 1.826422,1.26188 0.992431,-0.005 3.164239,-0.62364 4.394554,-1.25272 1.114767,-0.57001 6.317065,-5.07971 6.104758,-5.29202 -0.0677,-0.0677 -0.01296,-0.25923 0.121637,-0.42563 0.134599,-0.16639 0.754216,-1.07644 1.376926,-2.02232 l 1.132197,-1.7198 1.764118,-0.88796 1.764117,-0.88796 0.745657,0.2469 c 0.891826,0.2953 1.857534,1.63395 2.09609,2.90557 l 0.172694,0.92053 -0.612048,1.30675 -0.612047,1.30674 -1.340141,1.25855 c -0.737079,0.6922 -1.776283,1.58786 -2.309345,1.99036 -0.533061,0.40249 -1.046363,0.93288 -1.140669,1.17864 l -0.171466,0.44683 0.57467,0.46534 c 0.316066,0.25594 0.853324,0.46534 1.193903,0.46534 1.06756,0 3.517718,-0.73989 4.819413,-1.45536 1.167614,-0.64176 4.420655,-3.43584 4.427842,-3.80312 0.0084,-0.42822 2.097476,-4.46751 2.582928,-4.99412 0.301832,-0.32743 0.471501,-0.59532 0.377045,-0.59532 -0.09446,0 0.575725,-0.68461 1.489294,-1.52135 2.514622,-2.30316 3.325128,-2.97656 3.582599,-2.97656 0.128961,0 0.379537,-0.17479 0.556834,-0.38842 0.177295,-0.21363 0.400233,-0.373 0.495417,-0.35415 0.09518,0.0189 0.530249,-0.1138 0.966811,-0.29476 0.436563,-0.18097 1.541706,-0.52651 2.455876,-0.76789 l 1.662128,-0.43885 0.975514,0.52672 c 0.991132,0.53515 2.083702,1.89294 2.337779,2.90527 l 0.140023,0.55789 -1.079685,1.61685 -1.079688,1.61684 -0.721598,0.2479 -0.721599,0.24789 -0.727604,-0.24615 c -0.400182,-0.13539 -0.742487,-0.3553 -0.760677,-0.48869 -0.149619,-1.09722 -0.05613,-1.5424 0.477851,-2.2754 0.337455,-0.46324 0.613555,-0.90972 0.613555,-0.99219 0,-0.69981 -3.495114,0.8872 -5.236379,2.37765 -1.359189,1.16342 -3.391895,3.76295 -3.863851,4.9413 -0.190656,0.47601 -0.441738,1.1036 -0.557961,1.39464 -0.391618,0.98066 -0.45307,1.3176 -0.540274,2.96219 l -0.08692,1.63928 0.59064,0.87427 0.59064,0.87426 1.840074,-0.0194 c 1.012042,-0.0107 2.104062,-0.0924 2.426716,-0.18157 1.143254,-0.31602 5.075365,-2.35957 5.758659,-2.99283 0.381381,-0.35345 0.797846,-0.64263 0.925473,-0.64263 0.12763,0 0.389387,-0.15654 0.581681,-0.34787 0.192297,-0.19133 0.548759,-0.45922 0.792141,-0.59531 0.243383,-0.1361 1.172343,-0.94885 2.064356,-1.80611 l 1.621846,-1.55866 0.647224,0.34639 c 0.725027,0.38802 0.681051,0.41344 1.145035,-0.66197 0.186766,-0.43289 0.835953,-1.46619 1.442635,-2.29623 l 1.103059,-1.50917 1.271285,-0.60006 c 1.351992,-0.63816 2.87257,-0.74486 3.47616,-0.24393 0.51883,0.43059 1.47074,2.53882 1.46778,3.25076 -0.001,0.32901 -0.35533,1.21342 -0.78659,1.96536 l -0.78412,1.36717 -1.64024,1.41096 c -0.902142,0.77603 -1.920092,1.67614 -2.262122,2.00025 l -0.621869,0.58929 0.336733,0.54501 c 0.460245,0.74493 1.229662,0.88932 2.894778,0.54327 2.19252,-0.45567 3.90885,-1.38111 5.71968,-3.08406 0.91472,-0.86023 2.00878,-1.83498 2.43123,-2.1661 0.42245,-0.33113 1.08116,-1.24194 1.4638,-2.02403 1.37115,-2.80251 3.80071,-4.75382 5.92069,-4.75521 l 0.89552,-5.8e-4 0.62997,0.78052 c 0.34648,0.42929 0.76483,1.22309 0.92968,1.764 l 0.29972,0.98348 -0.47582,1.24591 -0.47581,1.24591 -1.34939,1.34431 c -0.74217,0.73937 -1.92209,1.83968 -2.62204,2.44514 l -1.27265,1.10082 0.34661,0.56082 c 0.50425,0.8159 1.32836,0.92255 3.30062,0.42714 2.75913,-0.69308 2.96145,-0.82409 7.31397,-4.73627 l 2.01105,-1.80759 0.54121,0.17178 0.54121,0.17177 v 0.48523 c 0,0.26688 -0.8632,1.55048 -1.91823,2.85245 l -1.91823,2.36723 -1.91299,1.25939 c -1.05214,0.69267 -2.65948,1.56708 -3.57187,1.94314 l -1.65889,0.68373 -1.45521,-0.01 -1.45521,-0.01 -1.11306,-0.56996 -1.11307,-0.56996 -0.67287,-1.14817 -0.67287,-1.14817 v -0.95332 c 0,-1.30828 -0.29366,-1.37845 -1.17041,-0.27965 -0.93456,1.17125 -4.18927,3.31504 -6.18309,4.07264 l -1.51004,0.57378 -1.3477,0.0272 -1.347693,0.0272 -1.280239,-0.65883 -1.280242,-0.65883 -0.613212,-1.15961 -0.613211,-1.1596 v -1.66256 c 0,-0.91441 -0.1049,-1.72739 -0.233109,-1.80663 -0.128209,-0.0792 -0.515162,0.2711 -0.859896,0.77853 -0.344733,0.50744 -0.805381,0.98445 -1.023662,1.06005 -0.218281,0.0756 -0.895853,0.58142 -1.505715,1.12408 -0.609864,0.54265 -1.502833,1.2562 -1.984375,1.58566 -1.862667,1.27438 -3.65366,2.40325 -3.65366,2.3029 0,-0.0577 -0.554001,0.13248 -1.231115,0.42273 -2.497592,1.07059 -5.023593,1.44406 -6.83813,1.01101 -2.509747,-0.59896 -3.962514,-2.02779 -4.486249,-4.41233 -0.102602,-0.46716 -0.231335,-0.84937 -0.286072,-0.84937 -0.152996,0 -2.07766,1.32988 -2.233901,1.54356 -0.31427,0.42979 -3.473691,1.91411 -4.792809,2.2517 -1.688832,0.4322 -2.880098,0.32308 -4.417189,-0.40462 l -1.13442,-0.53706 -0.651518,-1.2857 c -0.358333,-0.70714 -0.651515,-1.63983 -0.651515,-2.07264 0,-1.13349 -0.323734,-1.17435 -1.145416,-0.14457 -0.616672,0.77285 -1.718405,1.60327 -4.284821,3.22965 -0.806826,0.51129 -1.71599,0.86462 -3.26706,1.26967 l -1.421257,0.37115 -1.216057,-0.27252 c -0.668829,-0.14989 -1.5846,-0.5003 -2.035045,-0.77869 l -0.818989,-0.50616 -0.613825,-1.31055 -0.613826,-1.31054 0.119759,-2.07186 0.119758,-2.07187 h -3.114995 -3.114995 l -0.303917,0.66146 c -0.427865,0.93124 -1.444352,3.83266 -1.946576,5.55625 -0.486003,1.66793 -1.114719,2.52075 -2.14793,2.91358 -0.814245,0.30958 -1.608767,0.14037 -2.335977,-0.49748 -0.701435,-0.61524 -2.154346,-3.62418 -2.540443,-5.26118 -0.399409,-1.69345 -0.694421,-1.93637 -0.965777,-0.79525 -0.270679,1.13828 -0.231137,1.01744 -0.628459,1.92054 -0.192068,0.43656 -0.37952,0.91281 -0.416561,1.05833 -0.270319,1.06199 -1.106544,2.53663 -1.912982,3.37344 l -0.956171,0.99219 H 21.68861 c -0.312003,0 -0.821372,-0.22038 -1.131933,-0.48972 z"
         id="path189782" />
      <path
         style="fill:#fe0000;stroke-width:0.264583"
         d="m 45.911199,131.55217 c 0,-0.45889 0.121005,-0.90912 0.268899,-1.00053 0.147894,-0.0914 0.203083,-0.27268 0.122642,-0.40284 -0.08044,-0.13015 0.09621,-0.47911 0.39256,-0.77546 0.296349,-0.29635 0.458531,-0.53882 0.360405,-0.53882 -0.09813,0 0.101219,-0.29766 0.442994,-0.66146 0.70553,-0.751 1.26764,-0.84878 1.493645,-0.25983 0.254955,0.6644 -0.389644,1.82224 -1.773127,3.18492 l -1.308018,1.28835 z m 15.360135,0.19277 c -0.01222,-0.88637 1.08658,-3.17876 1.838936,-3.83646 l 0.605325,-0.52917 0.116234,0.33238 c 0.06393,0.18281 0.225128,0.26508 0.358219,0.18282 0.133091,-0.0823 0.241985,0.13887 0.241985,0.49139 v 0.64095 l -1.575784,1.68977 -1.575784,1.68977 z m 36.082321,-0.90688 c 0.360402,-1.19753 1.117872,-2.43676 1.872017,-3.06264 l 0.422505,-0.35065 0.410793,0.41079 0.41079,0.41079 -0.16307,0.51379 c -0.19773,0.62295 -2.648481,3.24938 -3.032053,3.24938 h -0.273542 z m 15.343695,0.2667 c 0.17504,-1.10142 0.87955,-2.41674 1.68473,-3.14542 l 0.49005,-0.44348 0.46015,0.33646 0.46014,0.33647 -0.2618,0.65359 c -0.2693,0.67234 -1.27994,1.85248 -2.37578,2.77425 l -0.62199,0.52318 z"
         id="path189780" />
    </g>
  </g>
</svg>
